<svg id="Capa_1" data-name="Capa 1" xmlns="http://www.w3.org/2000/svg" viewBox="0 0 286 60.73"><defs><style>.cls-1{fill:#1e1e1e;}.cls-2{fill:#e8e7e7;}</style></defs><g id="LOGO_D-REPORT" data-name="LOGO D-REPORT"><g id="Logotipo"><path id="Trazado_747" data-name="Trazado 747" class="cls-1" d="M96.35,45.37,88.8,32.21h-4V45.37H70.54V.22H90.35c12,0,19.09,6,19.09,16,0,5.6-2.25,10-6.38,12.77l10.06,16.38ZM84.8,20.93h4.45c3.55,0,5.75-1.75,5.75-4.71s-2.14-4.71-5.75-4.71H84.8Z"/><path id="Trazado_748" data-name="Trazado 748" class="cls-1" d="M114.08,29.38c0-10.32,6.71-17.16,16.84-17.16,10.45,0,16.77,6.39,16.77,17.16v2.9h-21c.38,2.84,2.2,4.77,4.64,4.77a5,5,0,0,0,4.27-2.2h12.06c-1,7-7.68,11.74-16.71,11.74C120.85,46.6,114.08,39.7,114.08,29.38Zm22-3.3c-.38-3-2.2-4.84-4.77-4.84-2.39,0-4.2,1.87-4.52,4.84Z"/><path id="Trazado_749" data-name="Trazado 749" class="cls-1" d="M193.3,29.38c0-10.32,7-17.16,17.54-17.16s17.68,6.83,17.68,17.16-7,17.22-17.68,17.22S193.3,39.7,193.3,29.38Zm23.1,0c0-3.94-2.2-6.58-5.55-6.58s-5.42,2.64-5.42,6.58,2.2,6.57,5.42,6.57,5.54-2.57,5.54-6.57Z"/><path id="Trazado_750" data-name="Trazado 750" class="cls-1" d="M233.62,13.44h13.09v3.42h.13c1.16-3,3.36-4.65,6.13-4.65a10,10,0,0,1,3.22.52V25a15.37,15.37,0,0,0-3.1-.46c-3.74,0-5.8,2.65-5.8,7.82v13H233.62Z"/><path id="Trazado_751" data-name="Trazado 751" class="cls-1" d="M264.07,33.57v-9h-5.42V13.44h5.42V3.25h13.67V13.44H286V24.53h-8.26V30.8c0,2.77,1.23,4.06,4.19,4.06a30.71,30.71,0,0,0,4.07-.45v11a22.15,22.15,0,0,1-7.62,1.16C269.74,46.6,264.07,41.44,264.07,33.57Z"/><path id="Trazado_752" data-name="Trazado 752" class="cls-1" d="M166.91,42.66h-.19V60.73H153V13.44h13.1v2.71h.13c1.93-2.64,5-3.94,9-3.94,8.58,0,14.38,7,14.38,17.23S184.07,46.6,175.75,46.6A10.87,10.87,0,0,1,166.91,42.66Zm-.19-13.22c0,4.39,1.93,7.16,5.1,7.16,2.9,0,4.71-2.9,4.71-7.16s-1.81-7.29-4.71-7.29C168.65,22.15,166.72,25,166.72,29.44Z"/><path id="Trazado_753" data-name="Trazado 753" class="cls-1" d="M52.8,18.47h9.88v9.88H52.8Z"/></g><g id="Isotipo"><path id="Trazado_754" data-name="Trazado 754" class="cls-1" d="M20.2,0H0V35.73H11.08V46.81H20.2c15.65,0,24.73-8.69,24.73-23.4S35.85,0,20.2,0Zm7.07,29.9c-1.28,1.21-4,1.91-7.51,1.91h-4.6V16.19h4.6c3.5,0,6.23.69,7.51,1.9s1.64,4.28,1.64,5.91-.21,4.55-1.63,5.9Z"/><path id="Trazado_755" data-name="Trazado 755" class="cls-2" d="M11.08,46.81V35.73H0Z"/></g></g></svg>