<svg id="Capa_1" data-name="Capa 1" xmlns="http://www.w3.org/2000/svg" viewBox="0 0 81.79 17.37"><defs><style>.cls-1{fill:#e8e7e7;}.cls-2{fill:#d0d94e;}</style></defs><g id="LOGO_D-REPORT" data-name="LOGO D-REPORT"><g id="Logotipo"><path id="Trazado_747" data-name="Trazado 747" class="cls-1" d="M27.55,13,25.4,9.21H24.25V13H20.17V.06h5.67c3.43,0,5.46,1.72,5.46,4.58a4.16,4.16,0,0,1-1.83,3.65L32.35,13Zm-3.3-7h1.27c1,0,1.65-.5,1.65-1.35s-.61-1.35-1.65-1.35H24.25Z"/><path id="Trazado_748" data-name="Trazado 748" class="cls-1" d="M32.62,8.4a4.59,4.59,0,0,1,4.25-4.9,3.62,3.62,0,0,1,.57,0c3,0,4.8,1.83,4.8,4.91v.83h-6a1.41,1.41,0,0,0,1.33,1.37A1.44,1.44,0,0,0,38.77,10h3.45c-.3,2-2.2,3.36-4.78,3.36a4.61,4.61,0,0,1-4.82-4.39A4.86,4.86,0,0,1,32.62,8.4Zm6.3-.94a1.41,1.41,0,0,0-1.37-1.38,1.37,1.37,0,0,0-1.29,1.38Z"/><path id="Trazado_749" data-name="Trazado 749" class="cls-1" d="M55.28,8.4a4.68,4.68,0,0,1,4.43-4.91,5.81,5.81,0,0,1,.59,0,4.92,4.92,0,0,1,.31,9.84H60.3a4.69,4.69,0,0,1-5-4.35A3.75,3.75,0,0,1,55.28,8.4Zm6.6,0c0-1.12-.62-1.88-1.58-1.88s-1.55.76-1.55,1.88.63,1.88,1.55,1.88S61.88,9.54,61.88,8.4Z"/><path id="Trazado_750" data-name="Trazado 750" class="cls-1" d="M66.81,3.84h3.75v1h0a1.87,1.87,0,0,1,1.76-1.33,2.91,2.91,0,0,1,.92.15v3.5A4.45,4.45,0,0,0,72.38,7c-1.07,0-1.66.76-1.66,2.24V13H66.81Z"/><path id="Trazado_751" data-name="Trazado 751" class="cls-1" d="M75.52,9.6V7H74V3.84h1.55V.93h3.91V3.84h2.36V7H79.43V8.81c0,.79.35,1.16,1.2,1.16a9,9,0,0,0,1.16-.13V13a6.46,6.46,0,0,1-2.18.34C77.14,13.33,75.52,11.85,75.52,9.6Z"/><path id="Trazado_752" data-name="Trazado 752" class="cls-1" d="M47.73,12.2h0v5.17H43.77V3.84h3.74v.78h0a3,3,0,0,1,2.56-1.13c2.46,0,4.12,2,4.12,4.93s-1.59,4.91-4,4.91A3.12,3.12,0,0,1,47.73,12.2Zm0-3.78c0,1.25.55,2.05,1.46,2.05s1.34-.83,1.34-2.05S50,6.33,49.14,6.33s-1.46.82-1.46,2.09Z"/><path id="Trazado_753" data-name="Trazado 753" class="cls-1" d="M15.1,5.28h2.82V8.1H15.1Z"/></g><g id="Isotipo"><path id="Trazado_754" data-name="Trazado 754" class="cls-1" d="M5.78,0H0V10.22H3.17v3.17H5.78c4.47,0,7.07-2.49,7.07-6.7S10.25,0,5.78,0Zm2,8.55a3.33,3.33,0,0,1-2.15.55H4.34V4.63H5.65a3.33,3.33,0,0,1,2.15.54,3.3,3.3,0,0,1,0,3.38Z"/><path id="Trazado_755" data-name="Trazado 755" class="cls-2" d="M3.17,13.39V10.22H0Z"/></g></g></svg>