<svg id="Capa_1" data-name="Capa 1" xmlns="http://www.w3.org/2000/svg" viewBox="0 0 186.91 39.69"><defs><style>.cls-1{fill:#1e1e1e;}.cls-2{fill:#e8e7e7;}</style></defs><g id="LOGO_D-REPORT" data-name="LOGO D-REPORT"><g id="Logotipo"><path id="Trazado_747" data-name="Trazado 747" class="cls-1" d="M63,29.65,58,21.05H55.42v8.6H46.1V.14H59.05c7.84,0,12.47,3.92,12.47,10.46a9.51,9.51,0,0,1-4.17,8.34l6.58,10.71Zm-7.55-16h2.91c2.32,0,3.75-1.14,3.75-3.08s-1.4-3.08-3.75-3.08H55.42Z"/><path id="Trazado_748" data-name="Trazado 748" class="cls-1" d="M74.55,19.2c0-6.75,4.39-11.22,11-11.22,6.83,0,11,4.18,11,11.22v1.9H82.77c.26,1.85,1.44,3.12,3,3.12a3.26,3.26,0,0,0,2.79-1.44h7.88c-.68,4.6-5,7.67-10.92,7.67C79,30.45,74.55,25.94,74.55,19.2ZM88.93,17c-.25-1.93-1.43-3.16-3.12-3.16s-2.74,1.23-3,3.16Z"/><path id="Trazado_749" data-name="Trazado 749" class="cls-1" d="M126.32,19.2c0-6.75,4.55-11.22,11.47-11.22s11.55,4.47,11.55,11.22-4.6,11.25-11.55,11.25S126.32,25.94,126.32,19.2Zm15.1,0c0-2.58-1.44-4.3-3.63-4.3s-3.54,1.72-3.54,4.3,1.43,4.3,3.54,4.3S141.42,21.81,141.42,19.2Z"/><path id="Trazado_750" data-name="Trazado 750" class="cls-1" d="M152.68,8.78h8.55V11h.09a4.25,4.25,0,0,1,4-3,6.46,6.46,0,0,1,2.1.34v8a9.76,9.76,0,0,0-2-.3c-2.44,0-3.79,1.73-3.79,5.1v8.51h-8.93Z"/><path id="Trazado_751" data-name="Trazado 751" class="cls-1" d="M172.57,21.94V16H169V8.79h3.54V2.13h8.94V8.79h5.4V16h-5.4v4.09c0,1.81.8,2.65,2.74,2.65a18.34,18.34,0,0,0,2.66-.29V29.7a14.52,14.52,0,0,1-5,.76C176.28,30.45,172.57,27.08,172.57,21.94Z"/><path id="Trazado_752" data-name="Trazado 752" class="cls-1" d="M109.08,27.88H109V39.69H100V8.78h8.56v1.78h.08C109.92,8.83,111.9,8,114.52,8c5.61,0,9.4,4.56,9.4,11.26s-3.63,11.21-9.06,11.21A7.06,7.06,0,0,1,109.08,27.88ZM109,19.24c0,2.87,1.26,4.68,3.33,4.68,1.89,0,3.07-1.9,3.07-4.68s-1.18-4.76-3.07-4.76C110.22,14.47,109,16.33,109,19.24Z"/><path id="Trazado_753" data-name="Trazado 753" class="cls-1" d="M34.51,12.07H41v6.46H34.51Z"/></g><g id="Isotipo"><path id="Trazado_754" data-name="Trazado 754" class="cls-1" d="M13.2,0H0V23.35H7.24v7.24h6c10.23,0,16.17-5.68,16.17-15.29S23.43,0,13.2,0Zm4.62,19.54c-.83.79-2.62,1.25-4.9,1.25h-3V10.58h3c2.28,0,4.07.45,4.9,1.24s1.07,2.8,1.07,3.86-.14,3-1.07,3.86Z"/><path id="Trazado_755" data-name="Trazado 755" class="cls-2" d="M7.24,30.59V23.35H0Z"/></g></g></svg>